# xmcd
#
# Track frame offsets: 
#        150
#        10945
#        27900
#        42990
#        55870
#        68672
#        88672
#        104365
#        129197
#        145165
#        159555
#        180452
#        200997
#
# Disc length: 2832 seconds
#
# Revision: 5
# Processed by: cddbd v1.5.2PL0 Copyright (c) Steve Scherf et al.
# Submitted via: ExactAudioCopy v0.95b4
#
DISCID=ad0b0e0d
DTITLE=Albert King - Hard Bargain
DYEAR=1995
DGENRE=Blues
TTITLE0=Overall Junction
TTITLE1=Funk-Shun
TTITLE2=You Sure Drive A Hard Bargain
TTITLE3=You're Gonna Need Me
TTITLE4=As The Years Go Passing By
TTITLE5=Drownin' On Dry Land
TTITLE6=Heart Fixing Business
TTITLE7=The Sky Is Crying
TTITLE8=I Get Evil
TTITLE9=Shake 'Em Down
TTITLE10=I Believe To My Soul
TTITLE11=Got To Be Some Changes Made
TTITLE12=Albert's Groove #2
EXTD=YEAR: 1995
EXTT0=
EXTT1=
EXTT2=
EXTT3=
EXTT4=
EXTT5=
EXTT6=
EXTT7=
EXTT8=
EXTT9=
EXTT10=
EXTT11=
EXTT12=
PLAYORDER=
